<svg xmlns="http://www.w3.org/2000/svg" viewBox="0 0 64 64" width="64" height="64">
  <rect width="64" height="64" rx="14" fill="#f8f1e5"/>
  <g transform="translate(14,6)">
    <!-- Krug body -->
    <path d="M10 16 C10 16, 8 18, 7 24 C6 30, 6 38, 8 44 C9 47, 12 50, 18 50 C24 50, 27 47, 28 44 C30 38, 30 30, 29 24 C28 18, 26 16, 26 16 Z" fill="#8B5E3C"/>
    <!-- Krug opening/rim -->
    <ellipse cx="18" cy="16" rx="9" ry="3.5" fill="#A0714F"/>
    <ellipse cx="18" cy="16" rx="7" ry="2.5" fill="#6B4226"/>
    <!-- Krug highlight -->
    <path d="M13 20 C13 20, 12 26, 12 32 C12 38, 13 44, 14 46" stroke="#A0714F" stroke-width="2.5" fill="none" stroke-linecap="round" opacity="0.6"/>
    <!-- Handle -->
    <path d="M28 22 C33 22, 36 26, 36 32 C36 38, 33 42, 28 42" stroke="#8B5E3C" stroke-width="4" fill="none" stroke-linecap="round"/>
    <path d="M28 22 C33 22, 36 26, 36 32 C36 38, 33 42, 28 42" stroke="#A0714F" stroke-width="2" fill="none" stroke-linecap="round"/>
    <!-- Birds -->
    <path d="M10 4 C12 2, 14 2, 16 4" stroke="#6B4226" stroke-width="1.2" fill="none" stroke-linecap="round"/>
    <path d="M18 2 C20 0, 22 0, 24 2" stroke="#6B4226" stroke-width="1.2" fill="none" stroke-linecap="round"/>
    <path d="M14 7 C16 5, 18 5, 20 7" stroke="#6B4226" stroke-width="1" fill="none" stroke-linecap="round" opacity="0.6"/>
  </g>
</svg>
